<svg width="116" height="40" viewBox="0 0 116 40" fill="none" xmlns="http://www.w3.org/2000/svg">
<path d="M33.6435 28.5V9.59091H41.1037C42.5379 9.59091 43.7597 9.86482 44.7692 10.4126C45.7786 10.9543 46.5481 11.7083 47.0774 12.6747C47.6129 13.6349 47.8807 14.7429 47.8807 15.9986C47.8807 17.2543 47.6098 18.3622 47.0682 19.3224C46.5265 20.2827 45.7417 21.0305 44.7138 21.5661C43.692 22.1016 42.4548 22.3693 41.0021 22.3693H36.2472V19.1655H40.3558C41.1252 19.1655 41.7592 19.0331 42.2578 18.7685C42.7625 18.4976 43.138 18.1252 43.3842 17.6513C43.6366 17.1712 43.7628 16.6203 43.7628 15.9986C43.7628 15.3707 43.6366 14.8229 43.3842 14.3551C43.138 13.8812 42.7625 13.5149 42.2578 13.2564C41.7531 12.9917 41.1129 12.8594 40.3374 12.8594H37.6413V28.5H33.6435ZM61.4233 18.3622L57.8225 18.5838C57.7609 18.276 57.6286 17.9991 57.4254 17.7528C57.2223 17.5005 56.9546 17.3004 56.6222 17.1527C56.2959 16.9988 55.9051 16.9219 55.4496 16.9219C54.8402 16.9219 54.3262 17.0511 53.9077 17.3097C53.4891 17.562 53.2798 17.9006 53.2798 18.3253C53.2798 18.6638 53.4153 18.95 53.6861 19.1839C53.9569 19.4179 54.4216 19.6056 55.0803 19.7472L57.647 20.2642C59.0258 20.5473 60.0537 21.0028 60.7308 21.6307C61.4079 22.2585 61.7465 23.0833 61.7465 24.1051C61.7465 25.0346 61.4725 25.8501 60.9247 26.5518C60.3831 27.2536 59.6383 27.8014 58.6903 28.1953C57.7486 28.5831 56.6622 28.777 55.4311 28.777C53.5537 28.777 52.058 28.3861 50.9439 27.6044C49.8359 26.8165 49.1866 25.7455 48.9957 24.3913L52.8644 24.1882C52.9813 24.7607 53.2644 25.1977 53.7138 25.4993C54.1631 25.7947 54.7386 25.9425 55.4403 25.9425C56.1297 25.9425 56.6837 25.8101 57.1023 25.5455C57.527 25.2746 57.7424 24.9268 57.7486 24.5021C57.7424 24.1451 57.5916 23.8527 57.2962 23.625C57.0007 23.3911 56.5452 23.2126 55.9297 23.0895L53.4737 22.6001C52.0888 22.3232 51.0578 21.843 50.3807 21.1598C49.7098 20.4766 49.3743 19.6056 49.3743 18.5469C49.3743 17.6359 49.6205 16.8511 50.1129 16.1925C50.6115 15.5339 51.3101 15.026 52.2088 14.669C53.1136 14.312 54.1724 14.1335 55.385 14.1335C57.1761 14.1335 58.5857 14.5121 59.6136 15.2692C60.6477 16.0263 61.251 17.0573 61.4233 18.3622ZM67.4872 28.7678C66.5824 28.7678 65.7761 28.6108 65.0682 28.2969C64.3603 27.9768 63.8002 27.5059 63.3878 26.8842C62.9815 26.2564 62.7784 25.4747 62.7784 24.5391C62.7784 23.7512 62.9231 23.0895 63.2124 22.554C63.5017 22.0185 63.8956 21.5876 64.3942 21.2614C64.8928 20.9351 65.4591 20.6889 66.0931 20.5227C66.7332 20.3565 67.4041 20.2396 68.1058 20.1719C68.9306 20.0857 69.5954 20.0057 70.1002 19.9318C70.6049 19.8518 70.9711 19.7348 71.1989 19.581C71.4266 19.4271 71.5405 19.1993 71.5405 18.8977V18.8423C71.5405 18.2576 71.3558 17.8052 70.9865 17.4851C70.6234 17.165 70.1063 17.005 69.4354 17.005C68.7275 17.005 68.1643 17.1619 67.7458 17.4759C67.3272 17.7836 67.0502 18.1714 66.9148 18.6392L63.277 18.3438C63.4617 17.482 63.8248 16.7372 64.3665 16.1094C64.9082 15.4754 65.6068 14.9891 66.4624 14.6506C67.3241 14.3059 68.3213 14.1335 69.4539 14.1335C70.2417 14.1335 70.9958 14.2259 71.7159 14.4105C72.4423 14.5952 73.0855 14.8814 73.6456 15.2692C74.2119 15.657 74.6582 16.1555 74.9844 16.7649C75.3106 17.3681 75.4737 18.0914 75.4737 18.9347V28.5H71.7436V26.5334H71.6328C71.4051 26.9766 71.1004 27.3674 70.7188 27.706C70.3371 28.0384 69.8786 28.3 69.3431 28.4908C68.8075 28.6754 68.1889 28.7678 67.4872 28.7678ZM68.6137 26.0533C69.1923 26.0533 69.7031 25.9394 70.1463 25.7116C70.5895 25.4777 70.9373 25.1638 71.1896 24.7699C71.442 24.3759 71.5682 23.9297 71.5682 23.4311V21.9261C71.4451 22.0062 71.2758 22.08 71.0604 22.1477C70.8511 22.2093 70.6141 22.2678 70.3494 22.3232C70.0848 22.3724 69.8201 22.4186 69.5554 22.4616C69.2907 22.4986 69.0507 22.5324 68.8352 22.5632C68.3736 22.6309 67.9704 22.7386 67.6257 22.8864C67.281 23.0341 67.0133 23.2341 66.8225 23.4865C66.6316 23.7327 66.5362 24.0405 66.5362 24.4098C66.5362 24.9453 66.7301 25.3546 67.1179 25.6378C67.5119 25.9148 68.0104 26.0533 68.6137 26.0533ZM81.6785 9.59091V28.5H77.7452V9.59091H81.6785ZM84.0492 28.5V14.3182H87.7978V16.8203H87.964C88.2594 15.9893 88.7519 15.3338 89.4413 14.8537C90.1307 14.3736 90.9555 14.1335 91.9157 14.1335C92.8882 14.1335 93.7161 14.3767 94.3994 14.8629C95.0826 15.343 95.5381 15.9955 95.7658 16.8203H95.9136C96.2029 16.0078 96.7261 15.3584 97.4832 14.8722C98.2464 14.3797 99.1482 14.1335 100.188 14.1335C101.512 14.1335 102.586 14.5552 103.411 15.3984C104.242 16.2356 104.657 17.4235 104.657 18.9624V28.5H100.733V19.7379C100.733 18.95 100.524 18.3591 100.105 17.9652C99.6868 17.5713 99.1636 17.3743 98.5357 17.3743C97.8217 17.3743 97.2646 17.602 96.8646 18.0575C96.4645 18.5069 96.2644 19.1009 96.2644 19.8395V28.5H92.4512V19.6548C92.4512 18.9593 92.2512 18.4053 91.8511 17.9929C91.4571 17.5805 90.937 17.3743 90.2907 17.3743C89.8537 17.3743 89.4597 17.4851 89.1089 17.7067C88.7642 17.9221 88.4903 18.2268 88.2871 18.6207C88.084 19.0085 87.9825 19.464 87.9825 19.9872V28.5H84.0492Z" fill="#849A9D"/>
<rect x="10.8" y="7" width="5.4" height="24" fill="#06B6D4"/>
<rect y="11.7998" width="26.4" height="4.8" fill="#06B6D4"/>
</svg>
