<svg width="14" height="14" viewBox="0 0 14 14" fill="none" xmlns="http://www.w3.org/2000/svg">
<path d="M7 7C7.69619 7 8.36387 6.72344 8.85616 6.23116C9.34844 5.73887 9.625 5.07119 9.625 4.375C9.625 3.67881 9.34844 3.01113 8.85616 2.51884C8.36387 2.02656 7.69619 1.75 7 1.75C6.30381 1.75 5.63613 2.02656 5.14384 2.51884C4.65156 3.01113 4.375 3.67881 4.375 4.375C4.375 5.07119 4.65156 5.73887 5.14384 6.23116C5.63613 6.72344 6.30381 7 7 7V7ZM8.75 4.375C8.75 4.83913 8.56563 5.28425 8.23744 5.61244C7.90925 5.94063 7.46413 6.125 7 6.125C6.53587 6.125 6.09075 5.94063 5.76256 5.61244C5.43437 5.28425 5.25 4.83913 5.25 4.375C5.25 3.91087 5.43437 3.46575 5.76256 3.13756C6.09075 2.80937 6.53587 2.625 7 2.625C7.46413 2.625 7.90925 2.80937 8.23744 3.13756C8.56563 3.46575 8.75 3.91087 8.75 4.375V4.375ZM12.25 11.375C12.25 12.25 11.375 12.25 11.375 12.25H2.625C2.625 12.25 1.75 12.25 1.75 11.375C1.75 10.5 2.625 7.875 7 7.875C11.375 7.875 12.25 10.5 12.25 11.375ZM11.375 11.3715C11.3741 11.1563 11.2403 10.5087 10.647 9.9155C10.0765 9.345 9.00288 8.75 7 8.75C4.99625 8.75 3.9235 9.345 3.353 9.9155C2.75975 10.5087 2.62675 11.1563 2.625 11.3715H11.375Z" fill="#374151"/>
</svg>
