<svg width="16" height="16" viewBox="0 0 16 16" fill="none" xmlns="http://www.w3.org/2000/svg">
<path d="M11.7429 10.344C12.7112 9.0227 13.1449 7.3845 12.9572 5.75716C12.7695 4.12982 11.9743 2.63335 10.7307 1.56714C9.48701 0.50093 7.88665 -0.0563875 6.24973 0.00668566C4.61282 0.0697588 3.06008 0.748571 1.90217 1.90732C0.744249 3.06606 0.0665484 4.61929 0.00464653 6.25624C-0.0572553 7.8932 0.501207 9.49317 1.56831 10.7361C2.6354 11.9789 4.13244 12.7731 5.75992 12.9596C7.38739 13.1461 9.02528 12.7112 10.3459 11.742H10.3449C10.3749 11.782 10.4069 11.82 10.4429 11.857L14.2929 15.707C14.4804 15.8946 14.7348 16.0001 15 16.0002C15.2653 16.0003 15.5198 15.895 15.7074 15.7075C15.895 15.52 16.0005 15.2656 16.0006 15.0004C16.0007 14.7351 15.8954 14.4806 15.7079 14.293L11.8579 10.443C11.8221 10.4068 11.7837 10.3744 11.7429 10.344ZM12.0009 6.50001C12.0009 7.22228 11.8586 7.93748 11.5822 8.60477C11.3058 9.27206 10.9007 9.87837 10.39 10.3891C9.87926 10.8998 9.27295 11.3049 8.60566 11.5813C7.93837 11.8577 7.22317 12 6.5009 12C5.77863 12 5.06343 11.8577 4.39614 11.5813C3.72885 11.3049 3.12253 10.8998 2.61181 10.3891C2.10109 9.87837 1.69596 9.27206 1.41956 8.60477C1.14316 7.93748 1.0009 7.22228 1.0009 6.50001C1.0009 5.04132 1.58036 3.64237 2.61181 2.61092C3.64326 1.57947 5.04221 1.00001 6.5009 1.00001C7.95959 1.00001 9.35853 1.57947 10.39 2.61092C11.4214 3.64237 12.0009 5.04132 12.0009 6.50001Z" fill="#6B7280"/>
</svg>
