<svg width="27" height="27" viewBox="0 0 27 27" fill="none" xmlns="http://www.w3.org/2000/svg">
<circle cx="13.5" cy="13.5" r="13.5" fill="#06B6D4"/>
<path d="M8.41802 13.6141C8.28977 13.6141 8.16152 13.5668 8.06027 13.4656L7.24352 12.6488L6.42676 13.4656C6.23101 13.6613 5.90702 13.6613 5.71127 13.4656C5.51552 13.2698 5.51552 12.9458 5.71127 12.7501L6.88576 11.5756C7.08151 11.3798 7.40552 11.3798 7.60127 11.5756L8.77577 12.7501C8.97152 12.9458 8.97152 13.2698 8.77577 13.4656C8.68127 13.5668 8.54627 13.6141 8.41802 13.6141Z" fill="white"/>
<path d="M19.7513 15.5716C19.6231 15.5716 19.4948 15.5243 19.3936 15.423L18.2191 14.2485C18.0233 14.0528 18.0233 13.7288 18.2191 13.533C18.4148 13.3373 18.7388 13.3373 18.9346 13.533L19.7513 14.3498L20.5681 13.533C20.7638 13.3373 21.0878 13.3373 21.2836 13.533C21.4793 13.7288 21.4793 14.0528 21.2836 14.2485L20.1091 15.423C20.0146 15.5175 19.8796 15.5716 19.7513 15.5716Z" fill="white"/>
<path d="M19.7512 15.5721C19.4745 15.5721 19.245 15.3426 19.245 15.0659V13.4998C19.245 10.3341 16.6665 7.75559 13.5007 7.75559C11.7525 7.75559 10.119 8.53859 9.01872 9.90884C8.84322 10.1248 8.52597 10.1586 8.30997 9.98984C8.09397 9.81434 8.05347 9.4971 8.22897 9.2811C9.51822 7.66785 11.442 6.74985 13.5007 6.74985C17.2267 6.74985 20.2575 9.7806 20.2575 13.5066V15.0726C20.2575 15.3426 20.0347 15.5721 19.7512 15.5721Z" fill="white"/>
<path d="M13.5009 20.2565C9.77489 20.2565 6.74414 17.2258 6.74414 13.4998V11.9338C6.74414 11.657 6.97364 11.4275 7.25039 11.4275C7.52714 11.4275 7.75664 11.657 7.75664 11.9338V13.4998C7.75664 16.6655 10.3351 19.244 13.5009 19.244C15.2491 19.244 16.8826 18.461 17.9829 17.0908C18.1584 16.8748 18.4756 16.8343 18.6916 17.0098C18.9076 17.1853 18.9481 17.5025 18.7726 17.7185C17.4834 19.3318 15.5596 20.2565 13.5009 20.2565Z" fill="white"/>
</svg>
